:SAMPLES-PER-SECOND 30
:FULLY-SPECIFIED
:DEGREES
56
root  2.74684 40.205 0.503761 8.12003 -86.0533 -9.22521
RightUpLeg  1.74937 -8.44164 -8.98169
RightLeg  -0.736057 -15.6093 -0.752837
RightFoot  6.07167 -1.8231 12.137
RightToes  -5.28226e-011 1.30204e-014 -6.03759e-014
Spine  3.19034 0.00215439 0.264708
Spine1  4.99148 0.608359 -2.58495
HEad  -4.1634 -8.63239 0.342903
LeftShoulder1  2.55291 -6.35057 -19.4201
LeftArm  4.38426 9.77878 -52.6634
LeftForeArm  2.97463 -11.3448 -12.5091
LeftHand  -0.306994 1.10536 8.2598
RightShoulder  1.81279 3.20086 20.7301
RightArm  4.87194 -5.63778 53.7385
RightForeArm  18.6012 8.82354 13.7621
RightHand  -0.23589 -3.43027 -13.3507
LeftUpLeg  1.16972 10.0305 10.4681
LeftLeg  1.73124 -3.08442 1.4361
LeftFoot  0.221955 1.39167 -13.7063
LeftToes  -2.42178e-010 -1.66495e-011 -2.88221e-011
57
root  2.74489 40.207 0.488121 7.21197 -85.7944 -8.09704
RightUpLeg  1.56082 -8.46492 -8.98897
RightLeg  -0.682828 -15.9143 -0.741928
RightFoot  6.01446 -1.80655 12.0675
RightToes  -5.28226e-011 1.30204e-014 -6.03759e-014
Spine  3.11669 -0.0140594 -0.0553002
Spine1  5.19175 0.538291 -2.31856
HEad  -4.62839 -8.37442 0.530283
LeftShoulder1  2.52314 -6.2529 -19.371
LeftArm  6.45826 9.61719 -52.5479
LeftForeArm  1.70029 -12.2173 -12.2028
LeftHand  -0.344607 0.826494 8.75067
RightShoulder  1.80309 3.17073 20.7054
RightArm  4.43805 -5.68346 53.7319
RightForeArm  18.2697 9.22321 13.5182
RightHand  -0.241132 -3.40587 -13.5039
LeftUpLeg  0.911072 9.97517 10.3894
LeftLeg  1.60735 -3.07542 1.43849
LeftFoot  0.34044 1.40521 -13.7052
LeftToes  -2.42178e-010 -1.66495e-011 -2.88221e-011
58
root  2.74587 40.2112 0.469347 5.19716 -85.5562 -5.86325
RightUpLeg  1.33068 -8.55756 -9.11739
RightLeg  -0.542994 -15.9701 -0.734058
RightFoot  5.95222 -1.81384 12.156
RightToes  -5.28226e-011 1.30204e-014 -6.03759e-014
Spine  3.13062 -0.0149034 -0.545259
Spine1  5.33255 0.460561 -1.95696
HEad  -5.14088 -8.13351 0.613035
LeftShoulder1  2.55006 -6.27225 -19.6112
LeftArm  9.26788 9.73113 -52.0373
LeftForeArm  -0.56674 -13.6066 -11.5773
LeftHand  -0.37278 0.648346 9.13688
RightShoulder  1.79248 3.12687 20.726
RightArm  3.91436 -5.70915 53.6013
RightForeArm  17.9976 9.56587 13.2876
RightHand  -0.236781 -3.42774 -13.3893
LeftUpLeg  0.72186 9.89253 10.2162
LeftLeg  1.38602 -3.17282 1.40359
LeftFoot  0.394965 1.40341 -13.6277
LeftToes  -2.42178e-010 -1.66495e-011 -2.88221e-011
59
root  2.74606 40.2124 0.444572 4.5473 -85.2909 -5.04876
RightUpLeg  1.13895 -8.63187 -9.14748
RightLeg  -0.374123 -16.152 -0.695676
RightFoot  5.88701 -1.8055 12.1447
RightToes  -5.28226e-011 1.30204e-014 -6.03759e-014
Spine  3.18242 0.0117581 -1.00084
Spine1  5.56758 0.386964 -1.49543
HEad  -5.72078 -7.95784 0.653035
LeftShoulder1  2.60192 -6.38248 -19.8633
LeftArm  11.9745 10.0757 -51.4626
LeftForeArm  -3.22557 -15.2942 -10.6256
LeftHand  -0.373294 0.611187 9.0793
RightShoulder  1.77686 3.07037 20.7207
RightArm  4.12454 -5.68607 53.3246
RightForeArm  16.9988 10.0237 13.0821
RightHand  -0.240318 -3.36285 -13.17
LeftUpLeg  0.587877 9.85046 10.1684
LeftLeg  1.1324 -3.53703 1.38971
LeftFoot  0.612275 1.43333 -13.674
LeftToes  -2.42178e-010 -1.66495e-011 -2.88221e-011
60
root  2.74548 40.2118 0.402431 5.73625 -84.9803 -6.14155
RightUpLeg  1.03419 -8.60194 -8.95876
RightLeg  -0.237478 -16.6627 -0.665047
RightFoot  5.79853 -1.74867 11.8305
RightToes  -5.28226e-011 1.30204e-014 -6.03759e-014
Spine  3.30737 0.067136 -1.43106
Spine1  5.85043 0.30248 -0.875073
HEad  -6.34675 -7.71711 0.711373
LeftShoulder1  2.59575 -6.37953 -19.8039
LeftArm  13.502 10.2497 -51.131
LeftForeArm  -4.86717 -16.4471 -9.86807
LeftHand  -0.357898 0.694156 8.84922
RightShoulder  1.7662 3.04001 20.681
RightArm  5.416 -5.75338 52.9183
RightForeArm  15.0214 10.927 12.7365
RightHand  -0.250021 -3.28376 -13.2242
LeftUpLeg  0.454072 9.93476 10.3617
LeftLeg  0.954346 -3.84734 1.38732
LeftFoot  0.907249 1.49013 -13.8853
LeftToes  -2.42178e-010 -1.66495e-011 -2.88221e-011
